<svg xmlns="http://www.w3.org/2000/svg" viewBox="0 0 450 720"><g id="LOGO"><path d="M226,448.8a9.64,9.64,0,0,1-3.62-.71l-200.8-81.8a9.65,9.65,0,0,1,7.25-17.89L226,428.7l195.57-82.2A9.64,9.64,0,0,1,429,364.29L229.74,448a9.46,9.46,0,0,1-3.73.76"/><path d="M226,448.8a9.64,9.64,0,0,1-3.62-.71l-200.8-81.8a9.65,9.65,0,0,1,7.25-17.89L226,428.7l195.57-82.2A9.64,9.64,0,0,1,429,364.29L229.74,448A9.46,9.46,0,0,1,226,448.8Z"/><path d="M58.74,457.3,215.18,667.38V545.28ZM224.82,705.37A9.79,9.79,0,0,1,217,701.5L16.89,432.84a8.86,8.86,0,0,1,.76-11.53,10,10,0,0,1,12-1.69L229.72,532.13a9.11,9.11,0,0,1,4.74,7.91V696.19a9.23,9.23,0,0,1-6.72,8.74,10.14,10.14,0,0,1-2.92.44"/><path d="M58.74,457.3,215.18,667.38V545.28ZM224.82,705.37c-3.07,0-8.33-1.4-10.17-3.87L16.89,432.84a8.86,8.86,0,0,1,.76-11.53,10,10,0,0,1,12-1.69L229.72,532.13a9.11,9.11,0,0,1,4.74,7.91V696.19a9.23,9.23,0,0,1-6.72,8.74A10.14,10.14,0,0,1,224.82,705.37Z"/><path d="M233,545.15V667.28L389.7,457.15Zm-9.64,160.08a10.24,10.24,0,0,1-2.93-.43,9.24,9.24,0,0,1-6.7-8.74V539.91A9.1,9.1,0,0,1,218.5,532L418.81,419.49a10,10,0,0,1,12,1.69,8.84,8.84,0,0,1,.76,11.53L231.25,701.37a9.79,9.79,0,0,1-7.86,3.86"/><path d="M233,545.15V667.28L389.7,457.15Zm-9.64,160.08a10.24,10.24,0,0,1-2.93-.43,9.24,9.24,0,0,1-6.7-8.74V539.91A9.1,9.1,0,0,1,218.5,532L418.81,419.49a10,10,0,0,1,12,1.69,8.84,8.84,0,0,1,.76,11.53l-200.31,271C229.41,706.16,226.45,705.23,223.39,705.23Z"/><path d="M114.19,387l-92.58,31.9c-5,1.74-5.39,7.23-3.66,12.27,1.37,4,2.79,6.52,6.79,6.52a10,10,0,0,0,3.13-.52l103-35.48C124.78,397.45,119.53,392.15,114.19,387Z"/><path d="M426.93,418.77l-79.65-28.3c-5.83,4.68-11.74,9.58-17.86,14.14L420.49,437c5,1.78,8.21-.85,10-5.87S431.94,420.55,426.93,418.77Z"/><path d="M39.25,352.71l176.4,73.12V59.35Zm186,97.22a9.5,9.5,0,0,1-3.69-.74L21.53,366.26A9.66,9.66,0,0,1,17,352.36L217,19.63a9.64,9.64,0,0,1,17.9,5V440.28a9.65,9.65,0,0,1-9.64,9.65"/><path d="M234.57,57.36V424.65L411.22,350.8Zm-9.82,392.47c-1.87,0-3.55-1.58-5.16-2.65a9.67,9.67,0,0,1-4.29-8V29.22c0-4.34,2.88-12.71,7-13.87S231,14,233.19,17.67L433.5,350.41A9.65,9.65,0,0,1,429,364.3L230.53,448.68c-3.47,1.15-4.52,1.15-5.78,1.15"/><circle cx="292.97" cy="379.39" r="11.56"/><circle cx="257.12" cy="367.65" r="11.56"/><circle cx="158.89" cy="379.39" r="11.56"/><circle cx="193.5" cy="367.65" r="11.56"/><circle cx="193.5" cy="296.05" r="11.56"/><circle cx="153.04" cy="311.85" r="11.56"/><circle cx="112.58" cy="327.65" r="11.56"/><circle cx="72.12" cy="343.45" r="11.56"/><circle cx="257.12" cy="296.05" r="11.56"/><circle cx="297.21" cy="311.85" r="11.56"/><circle cx="337.29" cy="327.65" r="11.56"/><circle cx="377.38" cy="343.45" r="11.56"/></g></svg>