<svg xmlns="http://www.w3.org/2000/svg" viewBox="0 0 427.57 197.46"><defs><style>.cls-1{fill:#282828;}</style></defs><title>logo-parity-fether</title><g id="Layer_2" data-name="Layer 2"><g id="Layer_1-2" data-name="Layer 1"><path id="Fill-1" class="cls-1" d="M112.82,158.34a21.26,21.26,0,0,0-3.13.22,5.77,5.77,0,0,0-5.07,5.81v12.38c0,3.05,2.46,5.44,5.89,5.66.82.07,1.56.07,2.31.07a20.07,20.07,0,0,0,2.09-.07c3.57-.3,5.74-2.24,6.11-5.52a69.26,69.26,0,0,0,0-13,5.88,5.88,0,0,0-5-5.29A15.08,15.08,0,0,0,112.82,158.34Zm-9.09,39.12c-1.57,0-4.55-.89-4.55-4.1V162.59a9,9,0,0,1,3.88-6.86,17.68,17.68,0,0,1,6.11-2c1.49-.15,2.83-.3,4.1-.3a18.43,18.43,0,0,1,4.62.52c4.47,1,7.23,3.95,8.12,8.65a17.49,17.49,0,0,1,.3,3.57v1.19c.07,2.61.07,5.37-.08,8.05a16.38,16.38,0,0,1-1,4.85c-1.35,3.65-4.1,5.89-8.28,6.63a18.49,18.49,0,0,1-3.57.3,25.27,25.27,0,0,1-3.13-.22,8.5,8.5,0,0,1-6-3.43l.15,13.93Z"/><path id="Fill-4" class="cls-1" d="M227,197.31c-.37,0-.59,0-.67-.07l-.74-.15,4.54-11c.3-.82.75-2,.45-2.76-2.76-6.7-5.37-13.26-8-19.9l-2.61-6.55c-.44-1.12-.74-1.94-.29-2.54s1.26-.59,2.45-.59a2.57,2.57,0,0,1,2.69,2c.59,1.56,7.75,19.52,9,22.73l9.09-22.58a3.28,3.28,0,0,1,3-2.39,3.48,3.48,0,0,1,1.41.3c1.2.52,1.05,1.34.9,1.72l-15.28,37.85a6.21,6.21,0,0,1-5.89,3.95"/><path id="Fill-7" class="cls-1" d="M145.16,171.68c-2,0-3.8.07-5.06.15-3.28.29-4.55,1.56-4.7,4.54v1.87a4,4,0,0,0,4.17,4.09c.9.08,1.72.08,2.46.08a20.32,20.32,0,0,0,2.24-.08,8,8,0,0,0,6.63-3.87c1-1.49,1-3.21,1-5v-.9a2.19,2.19,0,0,0-.07-.67,2.45,2.45,0,0,0-.75-.07C149.41,171.68,147.18,171.68,145.16,171.68Zm11.11,15.57c-1.57,0-4.4-.89-4.4-4.1v-.22l-.07.08a10.92,10.92,0,0,1-8.28,4.24h-1.41a26.61,26.61,0,0,1-4.32-.29,8.19,8.19,0,0,1-7-6.19,12.87,12.87,0,0,1-.07-7.3,7.68,7.68,0,0,1,6.85-5.89,60.5,60.5,0,0,1,7.83-.45c2,0,4,.08,5.66.22h.37c.3,0,.38-.07.38-.07a3.73,3.73,0,0,0,0-.89,45.48,45.48,0,0,0-.52-5c-.3-1.49-1.35-2.38-3.13-2.83a14.86,14.86,0,0,0-3.66-.45,11,11,0,0,0-8.49,3.51,2.55,2.55,0,0,1-1.79,1.11,1.47,1.47,0,0,1-.75-.22,12.43,12.43,0,0,1-2-1.56c-.37-.3-.52-1,.22-1.94a14.22,14.22,0,0,1,6.56-4.62,20.21,20.21,0,0,1,6.34-.9,20.92,20.92,0,0,1,4.92.52,8.39,8.39,0,0,1,6.7,6.34,20.86,20.86,0,0,1,.67,4.55c.23,6,.08,21.53.08,21.68v.6h-.67Z"/><path id="Fill-9" class="cls-1" d="M168.12,187.25c-1.57,0-4.47-.82-4.47-4V153.64h.59c1.57,0,4.55.82,4.55,3.88v.07l.07-.07a12.83,12.83,0,0,1,2.91-2.31,10.65,10.65,0,0,1,5.66-1.49,17.16,17.16,0,0,1,2,.15,11.58,11.58,0,0,1,3.13.67,1.49,1.49,0,0,1,1,2A6.37,6.37,0,0,1,183,158l-.08.08a1.43,1.43,0,0,1-1.34.82c-.22,0-.52-.08-1-.15a17.35,17.35,0,0,0-3.28-.37,9.73,9.73,0,0,0-3.73.67,21.62,21.62,0,0,0-2.9,1.56,4.48,4.48,0,0,0-2,4.1V187.4h-.45Z"/><path id="Fill-11" class="cls-1" d="M192.26,186.73c-1.56,0-4.47-.74-4.47-3.65V153.49h.6a4.38,4.38,0,0,1,4.47,4.47v28.77Z"/><path id="Fill-13" class="cls-1" d="M207.54,186.73c-1.49,0-4.32-.74-4.32-3.65V158.93h-3.73c-.74,0-1.19-.89-1.19-1.49V155c0-.67.37-1,1.19-1h3.73v-9.09h.6c1.49,0,4.32.52,4.32,3.65v5.52h7.3c1.05,0,1.27.52,1.27,1v2.46c0,.59-.52,1.49-1.27,1.49h-7.3v27.8Z"/><path id="Fill-15" class="cls-1" d="M190.33,147.08a3.56,3.56,0,0,1-3.58-3.5,3.51,3.51,0,0,1,3.58-3.5,3.56,3.56,0,0,1,3.57,3.5,3.6,3.6,0,0,1-3.57,3.5"/><path class="cls-1" d="M291.22,140.1v1.12a.87.87,0,0,1-1,1h-4c-4.85,0-6.75,2.69-6.75,8.33v3.41h10.1a.87.87,0,0,1,1,1V156a.87.87,0,0,1-1,1h-10.1v28.73a.87.87,0,0,1-1,1h-1.24a.87.87,0,0,1-1-1V157h-3.08a.87.87,0,0,1-1-1v-1.12a.87.87,0,0,1,1-1h3.08v-3.41c0-7.35,3.48-11.41,10-11.41h4A.87.87,0,0,1,291.22,140.1Z"/><path class="cls-1" d="M319.81,165.55v4.13a2,2,0,0,1-2.16,2H297.77v3.87c0,5.31,3,8.33,8.46,8.33h2.17c4.59,0,5.84-1.9,7.87-4.33.46-.52.72-.65,1.38-.19l.85.59c.65.46.59.85.2,1.37-2.37,2.89-4.73,5.71-10.3,5.71h-2.17c-6.88,0-11.8-4.33-11.8-11.67v-9.78c0-7.8,4.92-11.93,11.8-11.93h2.17C314,153.68,319.81,157.88,319.81,165.55Zm-3.34.26c0-6.1-3.48-9.05-8.07-9.05h-2.17c-5.44,0-8.46,3-8.46,9v3h18.7Z"/><path class="cls-1" d="M332.14,157v19.41c0,5.19,1.25,7.29,5.64,7.42.59-.07.85.39.85,1l-.06,1.11a.86.86,0,0,1-.92.92c-6.43-.13-8.72-3.47-8.72-10.29V157h-3.54a.87.87,0,0,1-1-1v-1c0-.72.33-1.05,1-1.05h3.54v-3.8a.87.87,0,0,1,1-1h1.25a.87.87,0,0,1,1,1v3.8h5.51c.72,0,1.05.33,1.05,1V156a.87.87,0,0,1-1,1Z"/><path class="cls-1" d="M369.59,165.29v20.46a.87.87,0,0,1-1,1h-1.24a.87.87,0,0,1-1-1V165.48c0-5.7-1.31-8.72-7.14-8.72h-1.12a11.24,11.24,0,0,0-9.64,5.18v23.81a.87.87,0,0,1-1,1h-1.25a.86.86,0,0,1-1-1V141.81a.87.87,0,0,1,1-1h1.25a.87.87,0,0,1,1,1v17.25a12,12,0,0,1,10.17-5.38h.52C367,153.68,369.59,157.61,369.59,165.29Z"/><path class="cls-1" d="M401.85,165.55v4.13a2,2,0,0,1-2.16,2H379.82v3.87c0,5.31,3,8.33,8.46,8.33h2.16c4.59,0,5.84-1.9,7.87-4.33.46-.52.72-.65,1.38-.19l.85.59c.66.46.59.85.2,1.37-2.36,2.89-4.72,5.71-10.3,5.71h-2.16c-6.89,0-11.81-4.33-11.81-11.67v-9.78c0-7.8,4.92-11.93,11.81-11.93h2.16C396.08,153.68,401.85,157.88,401.85,165.55Zm-3.34.26c0-6.1-3.48-9.05-8.07-9.05h-2.16c-5.44,0-8.46,3-8.46,9v3h18.69Z"/><path class="cls-1" d="M425.73,157.29a9.64,9.64,0,0,0-3.35-.53h-.79a11.24,11.24,0,0,0-9.64,5.18v23.81a.86.86,0,0,1-1,1h-1.25a.87.87,0,0,1-1-1V154.92a.87.87,0,0,1,1-1H411a.86.86,0,0,1,1,1v4.14a12.25,12.25,0,0,1,10.69-5.38,18.49,18.49,0,0,1,4.27.52.91.91,0,0,1,.59,1.25l-.53,1.38A.86.86,0,0,1,425.73,157.29Z"/><polygon class="cls-1" points="0.73 108.2 2.44 110.61 4.53 109.3 1.66 107.62 0.73 108.2"/><polygon class="cls-1" points="16.68 116.45 9.68 120.82 11.38 123.23 19.55 118.13 16.68 116.45"/><polygon class="cls-1" points="31.7 125.28 18.62 133.45 20.33 135.86 34.57 126.96 31.7 125.28"/><polygon class="cls-1" points="46.72 134.11 27.57 146.08 29.27 148.49 49.59 135.79 46.72 134.11"/><polygon class="cls-1" points="56.54 6.54 59.39 4.76 56.54 0 56.54 0.47 56.09 0.74 52.74 6.31 56.54 3.94 56.54 6.54"/><polygon class="cls-1" points="56.54 24.75 67.32 18.02 63.54 11.7 56.54 16.08 56.54 18.68 38.51 29.95 35.16 35.51 56.54 22.15 56.54 24.75"/><polygon class="cls-1" points="56.54 42.97 75.25 31.28 71.47 24.96 56.54 34.29 56.54 36.9 20.93 59.14 17.59 64.71 56.54 40.37 56.54 42.97"/><polygon class="cls-1" points="56.54 61.19 83.19 44.54 79.41 38.22 56.54 52.51 56.54 55.11 3.35 88.35 0 93.92 56.54 58.59 56.54 61.19"/><polygon class="cls-1" points="56.54 79.4 56.54 81.57 67.87 74.49 65.85 73.58 91.12 57.79 87.34 51.48 57.78 69.95 56.54 69.39 56.54 70.72 8.8 100.56 15.92 104.78 56.54 79.4"/><polygon class="cls-1" points="72.71 76.67 56.54 86.77 56.54 88.94 23.74 109.43 30.86 113.66 56.54 97.62 56.54 99.79 84.82 82.12 82.8 81.21 99.05 71.05 95.27 64.74 74.73 77.58 72.71 76.67"/><polyline class="cls-1" points="113.35 94.96 111.14 91.26 108.62 92.83 106.6 91.92 56.54 123.2 56.54 125.37 53.63 127.19 56.54 128.92 113.35 94.96"/><polygon class="cls-1" points="56.54 146.19 36.51 158.71 38.21 161.12 56.54 149.66 56.54 152.26 100.17 125 111.07 109.51 56.54 143.59 56.54 146.19"/><polygon class="cls-1" points="56.54 164.4 45.45 171.33 47.16 173.74 56.54 167.88 56.54 170.48 77.29 157.52 88.19 142.03 56.54 161.8 56.54 164.4"/><polygon class="cls-1" points="56.54 182.62 54.39 183.96 56.1 186.37 56.54 186.09 56.54 186.99 65.31 174.54 56.54 180.01 56.54 182.62"/><polygon class="cls-1" points="89.66 84.29 56.54 104.99 56.54 107.16 38.69 118.31 45.81 122.54 56.54 115.84 56.54 118.01 101.77 89.75 99.75 88.83 106.98 84.31 103.2 78 91.68 85.2 89.66 84.29"/></g></g></svg>