<?xml version="1.0" encoding="UTF-8" standalone="no"?>
<svg
   xmlns:dc="http://purl.org/dc/elements/1.1/"
   xmlns:cc="http://creativecommons.org/ns#"
   xmlns:rdf="http://www.w3.org/1999/02/22-rdf-syntax-ns#"
   xmlns:svg="http://www.w3.org/2000/svg"
   xmlns="http://www.w3.org/2000/svg"
   xmlns:sodipodi="http://sodipodi.sourceforge.net/DTD/sodipodi-0.dtd"
   xmlns:inkscape="http://www.inkscape.org/namespaces/inkscape"
   inkscape:version="1.0beta2 (2b71d25, 2019-12-03)"
   height="439.9996"
   width="1438.9446"
   sodipodi:docname="logo-openethereum.svg"
   id="svg63"
   version="1.1"
   viewBox="0 0 1438.9446 439.9996">
  <metadata
     id="metadata69">
    <rdf:RDF>
      <cc:Work
         rdf:about="">
        <dc:format>image/svg+xml</dc:format>
        <dc:type
           rdf:resource="http://purl.org/dc/dcmitype/StillImage" />
        <dc:title></dc:title>
      </cc:Work>
    </rdf:RDF>
  </metadata>
  <defs
     id="defs67" />
  <sodipodi:namedview
     inkscape:current-layer="svg63"
     inkscape:window-maximized="0"
     inkscape:window-y="23"
     inkscape:window-x="0"
     inkscape:cy="219.99948"
     inkscape:cx="719.54324"
     inkscape:zoom="0.716"
     fit-margin-bottom="0"
     fit-margin-right="0"
     fit-margin-left="0"
     fit-margin-top="0"
     showgrid="false"
     id="namedview65"
     inkscape:window-height="480"
     inkscape:window-width="762"
     inkscape:pageshadow="2"
     inkscape:pageopacity="0"
     guidetolerance="10"
     gridtolerance="10"
     objecttolerance="10"
     borderopacity="1"
     inkscape:document-rotation="0"
     bordercolor="#666666"
     pagecolor="#ffffff" />
  <g
     transform="translate(-30.45676,-30.000524)"
     id="LOGO">
    <path
       inkscape:connector-curvature="0"
       id="path10"
       d="m 1428.5,294.37 a 48.47,48.47 0 0 0 -25.21,6.5 40.26,40.26 0 0 0 -16.3,18 q -8.65,-24.46 -37.94,-24.46 a 44.68,44.68 0 0 0 -23.3,6 38.7,38.7 0 0 0 -15.41,17.45 v -15.34 a 7.89,7.89 0 0 0 -1.91,-5.6 7.14,7.14 0 0 0 -5.48,-2 8,8 0 0 0 -5.72,2 7.64,7.64 0 0 0 -2.17,5.86 v 111.58 a 7.46,7.46 0 0 0 7.89,7.9 7.37,7.37 0 0 0 5.61,-2.17 8,8 0 0 0 2,-5.73 v -65 q 0,-18.86 9.8,-30.06 9.8,-11.2 26.36,-11.21 14.51,0 21.13,8.28 6.62,8.28 6.62,26.88 v 71.07 a 7.46,7.46 0 0 0 7.9,7.9 7.34,7.34 0 0 0 5.6,-2.17 8,8 0 0 0 2,-5.73 v -65 q 0,-18.86 9.8,-30.06 9.8,-11.2 26.36,-11.21 14.52,0 21.14,8.28 6.62,8.28 6.62,26.88 v 71.07 a 7.46,7.46 0 0 0 7.89,7.9 7.35,7.35 0 0 0 5.61,-2.17 8,8 0 0 0 2,-5.73 v -72.01 q 0,-47.89 -41,-47.9 m -194.81,0.51 a 7.35,7.35 0 0 0 -5.61,2.17 8,8 0 0 0 -2,5.73 v 64.7 q 0,18.87 -10.83,30.19 -10.83,11.32 -28.56,11.33 -15.54,0 -22.8,-8.54 -7.26,-8.54 -7.25,-26.62 v -71.06 a 8,8 0 0 0 -2,-5.73 7.35,7.35 0 0 0 -5.61,-2.17 7.46,7.46 0 0 0 -7.89,7.9 v 72.09 q 0,23.7 11.08,35.79 11.08,12.09 33,12.1 a 49.06,49.06 0 0 0 24.57,-6.11 40.89,40.89 0 0 0 16.68,-17.83 v 15.54 a 8,8 0 0 0 2,5.73 7,7 0 0 0 5.35,2.17 7.44,7.44 0 0 0 7.89,-7.9 V 302.78 a 7.44,7.44 0 0 0 -7.89,-7.9 m -189,12.23 q 17.58,0 27.25,11.08 9.67,11.08 10.19,31.46 h -78.69 q 2,-20.11 12.73,-31.33 10.73,-11.22 28.52,-11.21 m 44.82,87.38 q -2.29,0 -7.89,3.82 a 122.19,122.19 0 0 1 -15.79,7.77 q -7.39,2.93 -18.34,2.93 -20.88,0 -32.34,-12.23 -11.46,-12.23 -12.17,-35.66 h 84.8 q 4.57,0 6.62,-2.17 2.05,-2.17 2,-6.75 0,-27 -13.88,-42.42 -13.88,-15.42 -37.82,-15.41 -17.07,0 -30.18,8 a 54,54 0 0 0 -20.37,22.67 q -7.26,14.65 -7.26,33.75 0,29.81 16.3,46.88 16.3,17.07 44.57,17.06 a 74.35,74.35 0 0 0 38.71,-10.95 q 8.65,-5.35 8.65,-10.95 a 6.6,6.6 0 0 0 -1.65,-4.46 5.08,5.08 0 0 0 -4,-1.91 m -133.7,-99.61 -3.56,0.26 q -28.27,2 -38.71,23.94 v -16.53 a 7.57,7.57 0 0 0 -2,-5.6 7.23,7.23 0 0 0 -5.35,-2 8,8 0 0 0 -5.73,2 7.67,7.67 0 0 0 -2.16,5.86 v 111.58 a 7.68,7.68 0 0 0 2.16,5.86 8,8 0 0 0 5.73,2 7.58,7.58 0 0 0 5.61,-2 8,8 0 0 0 2,-5.86 v -66 a 41.28,41.28 0 0 1 8.79,-26.24 q 8.79,-11.2 26.87,-13 l 7.64,-0.77 q 7.64,-0.75 7.64,-7.13 0,-3.56 -2,-5.09 c -1.36,-1 -3.65,-1.44 -6.88,-1.28 m -154.31,12.26 q 17.58,0 27.25,11.08 9.67,11.08 10.22,31.46 h -78.72 q 2,-20.11 12.73,-31.33 10.73,-11.22 28.52,-11.21 m 44.82,87.38 q -2.29,0 -7.89,3.82 a 122.19,122.19 0 0 1 -15.79,7.77 q -7.39,2.92 -18.34,2.92 -20.88,0 -32.34,-12.23 -11.46,-12.23 -12.22,-35.66 h 84.8 c 3.06,0 5.26,-0.72 6.62,-2.17 1.36,-1.45 2,-3.69 2,-6.75 q 0,-27 -13.88,-42.42 -13.88,-15.42 -37.82,-15.41 -17.06,0 -30.18,8 A 54,54 0 0 0 751,325.07 q -7.26,14.65 -7.26,33.75 0,29.81 16.3,46.88 16.3,17.07 44.57,17.06 a 74.35,74.35 0 0 0 38.71,-10.95 q 8.66,-5.35 8.65,-10.95 a 6.6,6.6 0 0 0 -1.65,-4.46 5.08,5.08 0 0 0 -3.95,-1.91 M 653.83,294.37 a 51.54,51.54 0 0 0 -25.34,6.12 40.7,40.7 0 0 0 -16.93,17.57 v -49.87 a 8,8 0 0 0 -2,-5.73 7.35,7.35 0 0 0 -5.61,-2.17 7.46,7.46 0 0 0 -7.89,7.9 v 146.17 a 7.46,7.46 0 0 0 7.89,7.9 7.35,7.35 0 0 0 5.61,-2.17 8,8 0 0 0 2,-5.73 v -65 q 0,-18.86 11.07,-30.06 11.07,-11.2 29.42,-11.21 16,0 23.43,8.4 7.43,8.4 7.38,26.76 v 71.07 a 7.46,7.46 0 0 0 7.9,7.9 7.34,7.34 0 0 0 5.6,-2.17 8,8 0 0 0 2,-5.73 v -72.05 q 0,-47.89 -44.57,-47.9 m -100.04,114.89 -6.88,-0.51 q -13,-1 -19.1,-7.77 -6.1,-6.77 -6.11,-22.54 v -68.53 h 30.81 a 7.24,7.24 0 0 0 5.1,-1.65 5.83,5.83 0 0 0 1.78,-4.46 6.25,6.25 0 0 0 -1.78,-4.59 6.94,6.94 0 0 0 -5.1,-1.78 h -30.81 v -28.78 a 7.7,7.7 0 0 0 -2.16,-5.86 8.09,8.09 0 0 0 -5.74,-2 7.61,7.61 0 0 0 -5.6,2 8,8 0 0 0 -2,5.86 v 28.78 h -19.39 a 6.57,6.57 0 0 0 -4.84,1.78 6.21,6.21 0 0 0 -1.78,4.59 5.79,5.79 0 0 0 1.78,4.46 6.85,6.85 0 0 0 4.84,1.65 h 19.36 v 67.76 q 0,21.66 9.29,32.23 9.29,10.57 28.65,11.84 l 7.13,0.52 q 5.1,0.24 7.39,-1.53 a 5.81,5.81 0 0 0 2.29,-4.84 q 0,-5.86 -7.13,-6.63 M 403.5,307.11 q 17.56,0 27.25,11.08 9.69,11.08 10.18,31.46 h -78.69 q 2,-20.11 12.74,-31.33 10.74,-11.22 28.52,-11.21 m 44.82,87.38 q -2.29,0 -7.9,3.82 a 120.93,120.93 0 0 1 -15.79,7.77 Q 417.25,409 406.3,409 385.42,409 373.96,396.77 362.5,384.54 361.73,361.11 h 84.81 q 4.57,0 6.62,-2.17 c 1.35,-1.44 2,-3.69 2,-6.75 q 0,-27 -13.89,-42.42 -13.89,-15.42 -37.77,-15.4 -17.07,0 -30.18,8 A 54,54 0 0 0 353,325.07 q -7.26,14.65 -7.26,33.75 0,29.81 16.3,46.88 16.3,17.07 44.56,17.06 a 74.33,74.33 0 0 0 38.71,-10.95 q 8.65,-5.35 8.66,-10.95 a 6.57,6.57 0 0 0 -1.66,-4.46 5,5 0 0 0 -3.94,-1.91" />
    <path
       inkscape:connector-curvature="0"
       id="path12"
       d="m 1428.5,294.37 a 48.47,48.47 0 0 0 -25.21,6.5 40.26,40.26 0 0 0 -16.3,18 q -8.65,-24.46 -37.94,-24.46 a 44.68,44.68 0 0 0 -23.3,6 38.7,38.7 0 0 0 -15.41,17.45 v -15.34 a 7.89,7.89 0 0 0 -1.91,-5.6 7.14,7.14 0 0 0 -5.48,-2 8,8 0 0 0 -5.72,2 7.64,7.64 0 0 0 -2.17,5.86 v 111.58 a 7.46,7.46 0 0 0 7.89,7.9 7.37,7.37 0 0 0 5.61,-2.17 8,8 0 0 0 2,-5.73 v -65 q 0,-18.86 9.8,-30.06 9.8,-11.2 26.36,-11.21 14.51,0 21.13,8.28 6.62,8.28 6.62,26.88 v 71.07 a 7.46,7.46 0 0 0 7.9,7.9 7.34,7.34 0 0 0 5.6,-2.17 8,8 0 0 0 2,-5.73 v -65 q 0,-18.86 9.8,-30.06 9.8,-11.2 26.36,-11.21 14.52,0 21.14,8.28 6.62,8.28 6.62,26.88 v 71.07 a 7.46,7.46 0 0 0 7.89,7.9 7.35,7.35 0 0 0 5.61,-2.17 8,8 0 0 0 2,-5.73 v -72.01 q 0.11,-47.89 -40.89,-47.9 z m -194.81,0.51 a 7.35,7.35 0 0 0 -5.61,2.17 8,8 0 0 0 -2,5.73 v 64.7 q 0,18.87 -10.83,30.19 -10.83,11.32 -28.67,11.33 -15.54,0 -22.8,-8.54 -7.26,-8.54 -7.25,-26.62 v -71.06 a 8,8 0 0 0 -2,-5.73 7.35,7.35 0 0 0 -5.61,-2.17 7.46,7.46 0 0 0 -7.89,7.9 v 72.09 q 0,23.7 11.08,35.79 11.08,12.09 33,12.1 a 49.06,49.06 0 0 0 24.57,-6.11 40.89,40.89 0 0 0 16.68,-17.83 v 15.54 a 8,8 0 0 0 2,5.73 7,7 0 0 0 5.35,2.17 7.44,7.44 0 0 0 7.89,-7.9 V 302.78 a 7.44,7.44 0 0 0 -7.89,-7.9 z m -189,12.23 q 17.58,0 27.25,11.08 9.67,11.08 10.19,31.46 h -78.69 q 2,-20.11 12.73,-31.33 10.73,-11.22 28.56,-11.21 z m 44.82,87.38 q -2.29,0 -7.89,3.82 a 122.19,122.19 0 0 1 -15.79,7.77 q -7.39,2.93 -18.34,2.93 -20.88,0 -32.34,-12.23 -11.46,-12.23 -12.15,-35.66 h 84.8 q 4.57,0 6.62,-2.17 2.05,-2.17 2,-6.75 0,-27 -13.88,-42.42 -13.88,-15.42 -37.82,-15.41 -17.07,0 -30.18,8 a 54,54 0 0 0 -20.37,22.67 q -7.26,14.65 -7.26,33.75 0,29.81 16.3,46.88 16.3,17.07 44.57,17.06 a 74.35,74.35 0 0 0 38.71,-10.95 q 8.65,-5.35 8.65,-10.95 a 6.6,6.6 0 0 0 -1.65,-4.46 5.08,5.08 0 0 0 -3.94,-1.88 z m -133.7,-99.61 -3.56,0.26 q -28.27,2 -38.71,23.94 v -16.56 a 7.57,7.57 0 0 0 -2,-5.6 7.23,7.23 0 0 0 -5.35,-2 8,8 0 0 0 -5.73,2 7.67,7.67 0 0 0 -2.16,5.86 v 111.58 a 7.68,7.68 0 0 0 2.16,5.86 8,8 0 0 0 5.73,2 7.58,7.58 0 0 0 5.61,-2 8,8 0 0 0 2,-5.86 v -66 a 41.28,41.28 0 0 1 8.79,-26.24 q 8.79,-11.2 26.87,-13 l 7.64,-0.77 q 7.64,-0.75 7.64,-7.13 0,-3.56 -2,-5.09 c -1.37,-0.99 -3.66,-1.41 -6.89,-1.25 z m -154.28,12.23 q 17.58,0 27.25,11.08 9.67,11.08 10.22,31.46 h -78.72 q 2,-20.11 12.73,-31.33 10.73,-11.22 28.52,-11.21 z m 44.82,87.38 q -2.29,0 -7.89,3.82 a 122.19,122.19 0 0 1 -15.79,7.77 q -7.39,2.92 -18.34,2.92 -20.88,0 -32.34,-12.23 -11.46,-12.23 -12.22,-35.66 h 84.8 c 3.06,0 5.26,-0.72 6.62,-2.17 1.36,-1.45 2,-3.69 2,-6.75 q 0,-27 -13.88,-42.42 -13.88,-15.42 -37.82,-15.41 -17.06,0 -30.18,8 A 54,54 0 0 0 751,325.07 q -7.26,14.65 -7.26,33.75 0,29.81 16.3,46.88 16.3,17.07 44.57,17.06 a 74.35,74.35 0 0 0 38.71,-10.95 q 8.66,-5.35 8.65,-10.95 a 6.6,6.6 0 0 0 -1.65,-4.46 5.08,5.08 0 0 0 -3.97,-1.91 z M 653.83,294.37 a 51.54,51.54 0 0 0 -25.34,6.12 40.7,40.7 0 0 0 -16.93,17.57 v -49.87 a 8,8 0 0 0 -2,-5.73 7.35,7.35 0 0 0 -5.61,-2.17 7.46,7.46 0 0 0 -7.89,7.9 v 146.17 a 7.46,7.46 0 0 0 7.89,7.9 7.35,7.35 0 0 0 5.61,-2.17 8,8 0 0 0 2,-5.73 v -65 q 0,-18.86 11.07,-30.06 11.07,-11.2 29.42,-11.21 16,0 23.43,8.4 7.43,8.4 7.38,26.76 v 71.07 a 7.46,7.46 0 0 0 7.9,7.9 7.34,7.34 0 0 0 5.6,-2.17 8,8 0 0 0 2,-5.73 v -72.05 q 0.04,-47.89 -44.53,-47.9 z m -100.08,114.89 -6.88,-0.51 q -13,-1 -19.1,-7.77 -6.1,-6.77 -6.11,-22.54 v -68.53 h 30.81 a 7.24,7.24 0 0 0 5.1,-1.65 5.83,5.83 0 0 0 1.78,-4.46 6.25,6.25 0 0 0 -1.78,-4.59 6.94,6.94 0 0 0 -5.1,-1.78 h -30.81 v -28.78 a 7.7,7.7 0 0 0 -2.16,-5.86 8.09,8.09 0 0 0 -5.74,-2 7.61,7.61 0 0 0 -5.6,2 8,8 0 0 0 -2,5.86 v 28.78 h -19.39 a 6.57,6.57 0 0 0 -4.84,1.78 6.21,6.21 0 0 0 -1.78,4.59 5.79,5.79 0 0 0 1.78,4.46 6.85,6.85 0 0 0 4.84,1.65 h 19.36 v 67.76 q 0,21.66 9.29,32.23 9.29,10.57 28.65,11.84 l 7.13,0.52 q 5.1,0.24 7.39,-1.53 a 5.81,5.81 0 0 0 2.29,-4.84 q 0,-5.89 -7.13,-6.63 z M 403.5,307.11 q 17.56,0 27.25,11.08 9.69,11.08 10.18,31.46 h -78.69 q 2,-20.11 12.74,-31.33 10.74,-11.22 28.52,-11.21 z m 44.82,87.38 q -2.29,0 -7.9,3.82 a 120.93,120.93 0 0 1 -15.79,7.77 Q 417.25,409 406.3,409 385.42,409 373.96,396.77 362.5,384.54 361.73,361.11 h 84.81 q 4.57,0 6.62,-2.17 c 1.35,-1.44 2,-3.69 2,-6.75 q 0,-27 -13.89,-42.42 -13.89,-15.42 -37.77,-15.4 -17.07,0 -30.18,8 A 54,54 0 0 0 353,325.07 q -7.26,14.65 -7.26,33.75 0,29.81 16.3,46.88 16.3,17.07 44.56,17.06 a 74.33,74.33 0 0 0 38.71,-10.95 q 8.65,-5.35 8.66,-10.95 a 6.57,6.57 0 0 0 -1.66,-4.46 5,5 0 0 0 -3.99,-1.91 z" />
    <path
       inkscape:connector-curvature="0"
       id="path14"
       d="m 868.28,71.33 q -14.52,0 -25.59,6.25 a 41.21,41.21 0 0 0 -16.94,18 v -16 a 7.58,7.58 0 0 0 -2,-5.61 7.22,7.22 0 0 0 -5.34,-2 7.44,7.44 0 0 0 -7.9,7.9 v 111.45 a 7.43,7.43 0 0 0 7.9,7.89 7.34,7.34 0 0 0 5.6,-2.16 8,8 0 0 0 2,-5.73 v -65 q 0,-18.85 11.08,-30.06 11.08,-11.21 29.41,-11.17 16,0 23.43,8.41 7.43,8.41 7.39,26.74 v 71.08 a 7.43,7.43 0 0 0 7.89,7.89 7.32,7.32 0 0 0 5.6,-2.16 8,8 0 0 0 2,-5.73 v -72.1 q 0,-47.88 -44.57,-47.89 M 713.7,84.07 q 17.56,0 27.25,11.08 9.69,11.08 10.18,31.46 h -78.69 q 2,-20.11 12.73,-31.33 10.73,-11.22 28.53,-11.21 m 44.82,87.38 q -2.29,0 -7.89,3.82 a 121.64,121.64 0 0 1 -15.8,7.77 q -7.38,2.96 -18.33,2.96 -20.89,0 -32.35,-12.23 -11.46,-12.23 -12.22,-35.66 h 84.81 c 3,0 5.26,-0.73 6.62,-2.17 1.36,-1.44 2,-3.69 2,-6.75 q 0,-27 -13.88,-42.41 -13.88,-15.41 -37.78,-15.45 -17.07,0 -30.18,8 A 54,54 0 0 0 663.14,102 q -7.26,14.66 -7.25,33.75 0,29.81 16.29,46.87 16.29,17.06 44.57,17.07 a 74.33,74.33 0 0 0 38.71,-10.95 q 8.65,-5.36 8.66,-11 a 6.6,6.6 0 0 0 -1.65,-4.46 5.05,5.05 0 0 0 -4,-1.91 M 560.89,186 q -19.36,0 -29.8,-13.12 -10.44,-13.12 -10.44,-37.32 0,-24.19 10.57,-37.45 10.57,-13.26 29.93,-13.25 19.35,0 30.18,13.51 10.83,13.51 10.82,37.63 0,23.69 -10.82,36.81 -10.82,13.12 -30.44,13.19 m 2.29,-114.64 q -15,0 -26,6.5 a 40.73,40.73 0 0 0 -16.56,19 V 79.74 a 8,8 0 0 0 -2,-5.73 7.33,7.33 0 0 0 -5.6,-2.17 7.44,7.44 0 0 0 -7.89,7.9 V 223 a 7.44,7.44 0 0 0 7.89,7.9 7.29,7.29 0 0 0 5.6,-2.17 8,8 0 0 0 2,-5.73 v -48.75 a 40.73,40.73 0 0 0 16.56,19 q 10.95,6.5 26,6.49 16.3,0 28.78,-7.89 a 52.47,52.47 0 0 0 19.36,-22.29 q 6.87,-14.4 6.87,-33.5 0,-19.36 -6.87,-34 A 53,53 0 0 0 592,79.36 q -12.48,-8 -28.78,-8 M 402.48,186 q -19.61,0 -30.05,-13 -10.44,-13 -10.43,-37.47 0,-23.94 10.69,-37.32 10.69,-13.38 30.06,-13.38 19.1,0 29.92,13.38 10.82,13.38 10.82,37.32 0,24.45 -10.69,37.45 -10.69,13 -30.31,13 m 0.26,13.75 q 16.8,0 29.79,-7.89 a 52,52 0 0 0 20,-22.42 q 7,-14.52 7,-33.88 0,-19.36 -7,-33.88 a 52,52 0 0 0 -20,-22.42 q -13,-7.89 -29.79,-7.9 -17.07,0 -29.93,7.9 a 53,53 0 0 0 -20,22.42 q -7.14,14.52 -7.13,33.88 0.01,19.36 7.13,33.88 a 53,53 0 0 0 20,22.42 q 12.85,7.89 29.93,7.89" />
    <path
       inkscape:connector-curvature="0"
       id="path16"
       d="m 868.28,71.33 q -14.52,0 -25.59,6.25 a 41.21,41.21 0 0 0 -16.94,18 v -16 a 7.58,7.58 0 0 0 -2,-5.61 7.22,7.22 0 0 0 -5.34,-2 7.44,7.44 0 0 0 -7.9,7.9 v 111.45 a 7.43,7.43 0 0 0 7.9,7.89 7.34,7.34 0 0 0 5.6,-2.16 8,8 0 0 0 2,-5.73 v -65 q 0,-18.85 11.08,-30.06 11.08,-11.21 29.41,-11.17 16,0 23.43,8.41 7.43,8.41 7.39,26.74 v 71.08 a 7.43,7.43 0 0 0 7.89,7.89 7.32,7.32 0 0 0 5.6,-2.16 8,8 0 0 0 2,-5.73 v -72.1 Q 912.85,71.34 868.28,71.33 Z M 713.7,84.07 q 17.56,0 27.25,11.08 9.69,11.08 10.18,31.46 h -78.69 q 2,-20.11 12.73,-31.33 10.73,-11.22 28.53,-11.21 z m 44.82,87.38 q -2.29,0 -7.89,3.82 a 121.64,121.64 0 0 1 -15.8,7.77 q -7.38,2.96 -18.33,2.96 -20.89,0 -32.35,-12.23 -11.46,-12.23 -12.22,-35.66 h 84.81 c 3,0 5.26,-0.73 6.62,-2.17 1.36,-1.44 2,-3.69 2,-6.75 q 0,-27 -13.88,-42.41 -13.88,-15.41 -37.78,-15.45 -17.07,0 -30.18,8 A 54,54 0 0 0 663.14,102 q -7.26,14.66 -7.25,33.75 0,29.81 16.29,46.87 16.29,17.06 44.57,17.07 a 74.33,74.33 0 0 0 38.71,-10.95 q 8.65,-5.36 8.66,-11 a 6.6,6.6 0 0 0 -1.65,-4.46 5.05,5.05 0 0 0 -3.95,-1.83 z M 560.89,186 q -19.36,0 -29.8,-13.12 -10.44,-13.12 -10.44,-37.32 0,-24.19 10.57,-37.45 10.57,-13.26 29.93,-13.25 19.35,0 30.18,13.51 10.83,13.51 10.82,37.63 0,23.69 -10.82,36.81 -10.82,13.12 -30.44,13.19 z m 2.29,-114.64 q -15,0 -26,6.5 a 40.73,40.73 0 0 0 -16.56,19 V 79.74 a 8,8 0 0 0 -2,-5.73 7.33,7.33 0 0 0 -5.6,-2.17 7.44,7.44 0 0 0 -7.89,7.9 V 223 a 7.44,7.44 0 0 0 7.89,7.9 7.29,7.29 0 0 0 5.6,-2.17 8,8 0 0 0 2,-5.73 v -48.75 a 40.73,40.73 0 0 0 16.56,19 q 10.95,6.5 26,6.49 16.3,0 28.78,-7.89 a 52.47,52.47 0 0 0 19.36,-22.29 q 6.87,-14.4 6.87,-33.5 0,-19.36 -6.87,-34 A 53,53 0 0 0 592,79.36 Q 579.48,71.34 563.18,71.33 Z M 402.48,186 q -19.61,0 -30.05,-13 -10.44,-13 -10.43,-37.47 0,-23.94 10.69,-37.32 10.69,-13.38 30.06,-13.38 19.1,0 29.92,13.38 10.82,13.38 10.82,37.32 0,24.45 -10.69,37.45 -10.69,13 -30.32,13.02 z m 0.26,13.75 q 16.8,0 29.79,-7.89 a 52,52 0 0 0 20,-22.42 q 7,-14.52 7,-33.88 0,-19.36 -7,-33.88 a 52,52 0 0 0 -20,-22.42 q -13,-7.89 -29.79,-7.9 -17.07,0 -29.93,7.9 a 53,53 0 0 0 -20,22.42 q -7.14,14.52 -7.13,33.88 0.01,19.36 7.13,33.88 a 53,53 0 0 0 20,22.42 q 12.86,7.86 29.93,7.86 z" />
    <path
       inkscape:connector-curvature="0"
       id="path18"
       d="m 164.83,306.56 a 6.13,6.13 0 0 1 -2.31,-0.45 L 34.62,254 a 6.1502927,6.1502927 0 0 1 4.62,-11.4 l 125.55,51.15 124.57,-52.35 a 6.15,6.15 0 0 1 4.74,11.34 l -126.9,53.34 a 6.12,6.12 0 0 1 -2.37,0.48" />
    <path
       inkscape:connector-curvature="0"
       id="path20"
       d="m 164.83,306.56 a 6.13,6.13 0 0 1 -2.31,-0.45 L 34.62,254 a 6.1502927,6.1502927 0 0 1 4.62,-11.4 l 125.55,51.15 124.57,-52.35 a 6.15,6.15 0 0 1 4.74,11.34 l -126.9,53.34 a 6.12,6.12 0 0 1 -2.37,0.48 z" />
    <path
       inkscape:connector-curvature="0"
       id="path22"
       d="m 58.28,312 99.65,133.81 V 368 Z m 105.79,158 a 6.22,6.22 0 0 1 -5,-2.47 L 31.63,296.39 a 5.64,5.64 0 0 1 0.48,-7.34 6.4,6.4 0 0 1 7.64,-1.05 l 127.44,71.67 a 5.79,5.79 0 0 1 3,5 v 99.46 a 5.87,5.87 0 0 1 -4.27,5.57 6.31,6.31 0 0 1 -1.86,0.28" />
    <path
       inkscape:connector-curvature="0"
       id="path24"
       d="m 58.28,312 99.65,133.81 V 368 Z m 105.79,158 c -2,0 -5.31,-0.89 -6.48,-2.47 l -126,-171.12 a 5.64,5.64 0 0 1 0.48,-7.34 6.4,6.4 0 0 1 7.68,-1.07 l 127.44,71.67 a 5.79,5.79 0 0 1 3,5 v 99.46 a 5.87,5.87 0 0 1 -4.27,5.57 6.31,6.31 0 0 1 -1.85,0.3 z" />
    <path
       inkscape:connector-curvature="0"
       id="path26"
       d="m 169.3,367.93 v 77.79 l 99.78,-133.84 z m -6.14,102 a 6.38,6.38 0 0 1 -1.87,-0.28 5.88,5.88 0 0 1 -4.27,-5.56 v -99.5 a 5.82,5.82 0 0 1 3,-5 l 127.59,-71.66 a 6.39,6.39 0 0 1 7.64,1.08 5.64,5.64 0 0 1 0.48,7.34 L 168.16,467.43 a 6.2,6.2 0 0 1 -5,2.46" />
    <path
       inkscape:connector-curvature="0"
       id="path28"
       d="m 169.3,367.93 v 77.79 l 99.78,-133.84 z m -6.14,102 a 6.38,6.38 0 0 1 -1.87,-0.28 5.88,5.88 0 0 1 -4.27,-5.56 v -99.5 a 5.82,5.82 0 0 1 3,-5 l 127.59,-71.66 a 6.39,6.39 0 0 1 7.64,1.08 5.64,5.64 0 0 1 0.48,7.34 L 168.16,468.9 c -1.16,1.58 -3.05,0.99 -5,0.99 z" />
    <path
       inkscape:connector-curvature="0"
       id="path30"
       d="m 93.61,267.18 -59,20.32 c -3.2,1.1 -3.43,4.6 -2.33,7.81 0.88,2.55 1.78,4.15 4.33,4.15 a 6.29,6.29 0 0 0 2,-0.33 l 65.58,-22.59 a 87.56,87.56 0 0 1 -10.58,-9.36 z" />
    <path
       inkscape:connector-curvature="0"
       id="path32"
       d="m 292.8,287.43 -50.73,-18 c -3.72,3 -7.48,6.1 -11.38,9 l 58,20.61 c 3.18,1.13 5.22,-0.54 6.36,-3.74 1.14,-3.2 0.95,-6.73 -2.25,-7.87 z" />
    <path
       inkscape:connector-curvature="0"
       id="path34"
       d="m 45.87,245.36 112.36,46.57 V 58.5 Z m 118.5,61.92 a 6,6 0 0 1 -2.35,-0.47 L 34.58,254 a 6.16,6.16 0 0 1 -2.91,-8.86 L 159.11,33.21 a 6.13,6.13 0 0 1 11.39,3.17 v 264.75 a 6.14,6.14 0 0 1 -6.13,6.15" />
    <path
       inkscape:connector-curvature="0"
       id="path36"
       d="m 170.28,57.24 v 233.94 l 112.51,-47 z m -6.26,250 c -1.19,0 -2.26,-1 -3.28,-1.69 A 6.15,6.15 0 0 1 158,300.43 V 39.31 c 0,-2.76 1.84,-8.09 4.49,-8.83 2.65,-0.74 5.48,-0.88 6.9,1.48 L 297,243.89 a 6.19,6.19 0 0 1 0.58,5.09 6.12,6.12 0 0 1 -3.47,3.76 L 167.7,306.48 a 9.62,9.62 0 0 1 -3.68,0.74" />
    <circle
       id="circle38"
       r="7.3600001"
       cy="262.35001"
       cx="207.47" />
    <circle
       id="circle40"
       r="7.3600001"
       cy="254.87"
       cx="184.64" />
    <circle
       id="circle42"
       r="7.3600001"
       cy="262.35001"
       cx="122.08" />
    <circle
       id="circle44"
       r="7.3600001"
       cy="254.87"
       cx="144.12" />
    <circle
       id="circle46"
       r="7.3600001"
       cy="209.27"
       cx="144.12" />
    <circle
       id="circle48"
       r="7.3600001"
       cy="219.33"
       cx="118.35" />
    <circle
       id="circle50"
       r="7.3600001"
       cy="229.39999"
       cx="92.580002" />
    <circle
       id="circle52"
       r="7.3600001"
       cy="239.46001"
       cx="66.809998" />
    <circle
       id="circle54"
       r="7.3600001"
       cy="209.27"
       cx="184.64" />
    <circle
       id="circle56"
       r="7.3600001"
       cy="219.33"
       cx="210.17" />
    <circle
       id="circle58"
       r="7.3600001"
       cy="229.39999"
       cx="235.7" />
    <circle
       id="circle60"
       r="7.3600001"
       cy="239.46001"
       cx="261.23999" />
  </g>
</svg>
